<svg id="圖層_1" enable-background="new 0 0 232.8 429.4" height="512" viewBox="0 0 232.8 429.4" width="512" xmlns="http://www.w3.org/2000/svg"><g><g><path d="m6.3 250.6c7-27.1 1.3-48.7-2.8-76.4-5.9-39.7-6.4-84.4 12.9-119.6 20.3-36.9 62-52.4 102.1-54.3 19.3-.9 43.4 7.5 47.8 22.1 28.9.1 43.4 14.7 55.2 36.8 10.7 20.2 11.5 47.9 11.1 73-.6 43.9-13 79.7-9.3 126.6-11.7-2.9-49.5-2.5-77.5 3-35.8 7.1-114.3 8.3-139.5-11.2" fill="#002239"/></g><g><path d="m146 261.9c13.1-2.6 28.3-4 42-4.5-3.2-41 19.7-60.6 20-95.4.3-22.9-.3-48.1-8.8-66.5-9.2-20.2-20.6-33.5-43.4-33.6-3.5-13.3-22.5-20.9-37.7-20.1-31.6 1.7-64.4 15.8-80.4 49.4-15.2 32-14.8 75.2-1 117.4 6.5 20 7.3 35.7 4.3 54.4 33.9 5.9 79.9 3.8 105-1.1z"/></g><path d="m74.8 280.1c-52.7 19.6-71.7 71-74.3 149.3h230c-2.6-78.3-21.6-129.7-74.3-149.3-9.3-3.5-15.3-11.7-15.3-20.6v-22.6c21.6-8.5 38.2-27.8 46.8-52.9h.4c10.5 0 19-8.5 19-19 0-8.4-5.5-15.6-13.1-18.1.1-5.9-.1-11.9-.7-18.1-5.6-53-40.1-78.7-77.9-78.7-37.7 0-72.3 25.6-77.9 78.7-.6 6.1-.9 12.2-.7 18.1-7.6 2.5-13.1 9.6-13.1 18.1 0 10.5 8.5 19 19 19h.4c8.6 25.2 25.2 44.4 46.8 52.9v22.6c.2 8.9-5.8 17.2-15.1 20.6z" fill="#fad1b3"/><g><g><path d="m116.5 201.3c-4.9 0-9.9-1.9-13.6-5.6-.8-.8-.8-2 0-2.8s2-.8 2.8 0c6 6 15.6 6 21.6 0 .8-.8 2-.8 2.8 0s.8 2 0 2.8c-3.7 3.8-8.7 5.6-13.6 5.6z" fill="#cf534a"/></g><g><path d="m75 133.2c-1.9 0-3.7 1.3-5 3.4-2 .3-4.2 0-5.6-1.7-.7-.8-1.9-.9-2.7-.2s-.9 1.9-.2 2.7c1.8 2.1 4.2 3 6.7 3.1-.7 2.2-1.1 4.8-1.1 7.5 0 8.2 3.6 14.8 7.9 14.8 4.4 0 7.9-6.6 7.9-14.8 0-8.1-3.5-14.8-7.9-14.8z"/><path d="m169.4 134.7c-.8-.7-2-.6-2.7.2-1.5 1.7-3.6 2-5.6 1.7-1.4-2.1-3.1-3.4-5-3.4-4.4 0-7.9 6.6-7.9 14.8s3.6 14.8 7.9 14.8c4.4 0 7.9-6.6 7.9-14.8 0-2.8-.4-5.3-1.1-7.5 2.5-.1 4.9-1 6.7-3.1.7-.8.6-2-.2-2.7z"/></g></g><g><path d="m24.8 99.6c-4.9-1.9-10.9 1.1-13.2 5.1-4 6.9.4 15.7 8.1 20 7.7 4.4 17.7 5.1 27 4.2 21.2-2 38.9-14.3 50.4-28.3 5.5-6.7 9.6-17.9 19.5-23.3s16.3-5.6 22-4.8 11.1 4.2 12.1 8.9c4.4-2.8 8.7-1 11.5 1.7 2.9 2.6 4.5 6 5.8 9.4 2.1 5.6 3.5 11.4 6.2 16.8s6.4 9.6 12.9 12.1 16 2.7 20.2-2.1c0 0-3.5-33.9-17.9-50.9-12.3-14.6-38.2-32.8-78.7-32.8s-57.5 13.5-72.4 32.4c-10.3 13.1-13.5 31.6-13.5 31.6z" fill="#002239"/></g><g><path d="m165.8 284.2-50.3 71.6-50.3-71.6c-45.4 22.1-62.2 71.9-64.7 145.2h230c-2.4-73.3-19.3-123.1-64.7-145.2z" fill="#6dcfd5"/></g><g fill="#263c82"><path d="m50.8 429.4-3-.1c0-.1.4-12.3-2.4-18.3-4.6-9.9-7.3-17.3-8.1-22-1.4-8.9-.5-18.2 2.4-26 2-5.5 2.6-9.6 3-14.8l3 .2c-.4 5.3-1 9.8-3.2 15.6-2.7 7.4-3.5 16.1-2.3 24.6.7 4.5 3.3 11.6 7.8 21.2 3.2 6.6 2.8 19.1 2.8 19.6z"/><path d="m180.2 429.4c0-.5-.4-13 2.7-19.7 4.5-9.6 7.1-16.8 7.8-21.2 1.3-8.4.5-17.1-2.3-24.6-2.2-5.8-2.8-10.3-3.2-15.6l3-.2c.4 5.2 1 9.2 3 14.8 2.9 7.9 3.8 17.1 2.4 26-.7 4.7-3.4 12.2-8.1 22-2.8 6-2.4 18.2-2.4 18.3z"/></g></g></svg>